<?xml version="1.0" standalone="no"?>
<!DOCTYPE svg PUBLIC "-//W3C//DTD SVG 20010904//EN"
 "http://www.w3.org/TR/2001/REC-SVG-20010904/DTD/svg10.dtd">
<svg version="1.0" xmlns="http://www.w3.org/2000/svg"
 width="700.000000pt" height="700.000000pt" viewBox="0 0 700.000000 700.000000"
 preserveAspectRatio="xMidYMid meet">

<g transform="translate(0.000000,700.000000) scale(0.100000,-0.100000)"
fill="#000000" stroke="none">
<path d="M2120 5329 c-104 -13 -220 -54 -296 -104 -38 -25 -94 -53 -124 -61
-131 -36 -140 -42 -191 -134 -51 -94 -114 -164 -204 -229 -93 -67 -105 -85
-105 -159 0 -107 57 -229 167 -359 l52 -62 -31 -60 c-47 -91 -118 -165 -212
-219 -72 -42 -78 -47 -53 -50 36 -4 34 -19 -9 -83 -100 -149 -219 -232 -579
-409 -295 -145 -394 -206 -477 -293 l-58 -61 0 -70 0 -70 25 35 c44 58 147
159 210 204 90 63 193 118 207 109 7 -4 10 -3 5 1 -4 5 70 46 164 92 150 74
335 176 349 193 3 4 31 25 62 49 31 23 64 53 73 67 9 14 20 22 25 19 6 -3 7 0
4 8 -3 9 4 22 18 31 12 9 19 16 15 16 -4 0 4 18 18 39 13 22 30 58 37 79 9 30
23 47 58 68 67 42 138 112 177 174 20 30 37 57 39 59 1 2 23 -14 47 -35 37
-32 43 -42 35 -58 -7 -12 -6 -22 2 -30 8 -8 10 -7 6 4 -13 36 8 40 73 14 87
-35 165 -35 225 0 24 14 47 22 51 18 3 -4 5 -2 3 3 -1 6 11 30 27 55 60 89 85
167 92 291 7 114 -2 159 -64 314 -72 180 -87 268 -63 370 8 37 8 38 -6 20 -8
-11 -24 -51 -36 -88 -27 -89 -20 -135 44 -324 60 -178 73 -295 44 -399 -34
-117 -107 -194 -185 -194 -175 0 -511 351 -511 533 0 44 18 67 94 121 88 62
160 147 204 236 20 41 36 76 37 77 0 1 42 11 92 22 103 22 131 35 205 90 31
24 79 48 127 62 68 20 97 23 271 23 l195 1 67 -32 c76 -36 149 -98 183 -157
23 -40 49 -111 79 -213 14 -50 14 -53 -3 -53 -13 0 -22 16 -35 61 -19 69 -60
119 -98 119 -13 0 -28 4 -34 9 -13 14 -10 -117 3 -150 17 -40 162 -91 296
-106 l58 -6 -29 -17 c-38 -23 -72 -68 -72 -94 0 -12 7 -32 16 -44 15 -21 15
-25 -2 -45 -29 -35 -85 -87 -95 -87 -5 0 -9 -4 -9 -10 0 -20 26 -8 68 31 24
23 41 43 38 47 -3 3 -1 11 5 18 9 11 19 7 52 -21 45 -38 94 -57 129 -47 19 5
16 -2 -21 -46 -65 -78 -118 -121 -201 -161 -70 -33 -82 -36 -167 -36 -57 0
-96 4 -104 12 -6 6 -18 9 -27 6 -10 -4 -13 -2 -8 5 5 8 2 10 -8 6 -29 -11
-226 126 -226 157 0 5 14 9 31 9 17 0 37 7 45 15 14 13 8 15 -51 15 -77 0 -99
-9 -121 -52 -21 -40 -13 -75 32 -152 69 -115 171 -203 285 -245 30 -12 71 -33
90 -47 l34 -26 -30 7 c-16 3 -76 24 -132 45 -56 21 -116 41 -133 45 l-32 7 18
-27 c10 -16 36 -41 59 -58 22 -16 32 -27 22 -24 -15 6 -17 3 -13 -16 5 -19 5
-19 -6 3 -7 14 -21 33 -30 42 -17 17 -18 17 -18 -2 0 -11 5 -20 10 -20 6 0 10
-5 10 -12 0 -6 -9 -3 -21 8 -13 12 -19 27 -16 41 7 37 -16 48 -60 30 -42 -18
-30 -23 13 -7 19 8 30 8 38 0 7 -7 2 -10 -15 -11 -16 -1 -19 -3 -6 -6 9 -2 17
-14 17 -25 0 -12 8 -30 18 -41 16 -19 16 -20 0 -14 -10 4 -18 2 -18 -3 0 -5
-10 -11 -22 -13 -13 -2 -8 -3 10 -1 57 5 73 -10 17 -17 l-50 -6 62 -1 c67 -2
163 15 163 28 0 4 -9 6 -20 3 -11 -3 -20 0 -20 6 0 14 7 14 68 0 l49 -10 6
-87 c8 -100 45 -245 77 -297 12 -19 18 -35 13 -35 -14 0 -67 36 -97 66 -29 29
-29 29 -21 4 4 -14 29 -69 57 -123 48 -97 88 -222 88 -280 0 -28 -3 -27 -50
36 -65 86 -71 89 -62 30 12 -81 7 -234 -11 -300 -21 -81 -78 -213 -89 -207 -4
3 -17 22 -28 42 -15 29 -19 32 -20 16 0 -12 -16 -53 -35 -92 -41 -81 -136
-187 -264 -296 -78 -66 -232 -176 -246 -176 -3 0 5 21 19 48 36 71 115 321
126 399 9 66 3 183 -9 183 -3 0 -14 -33 -23 -73 -26 -105 -61 -209 -140 -412
-70 -181 -123 -378 -134 -500 l-6 -60 40 -22 c22 -13 65 -32 94 -43 80 -30
142 -102 130 -153 -5 -26 -49 -22 -58 6 -11 38 -44 77 -77 92 -31 15 -31 15
-9 -1 23 -17 52 -73 52 -100 0 -11 -22 -14 -99 -14 -156 0 -153 -1 -204 99
-40 77 -45 95 -51 176 -3 50 -13 115 -22 145 -8 30 -17 65 -18 77 -1 13 -6 26
-11 30 -4 5 -5 1 0 -7 5 -10 5 -12 -3 -5 -12 11 -52 162 -83 313 -19 95 -23
192 -8 192 5 0 6 6 3 14 -3 8 -2 22 3 31 7 11 9 6 9 -20 0 -19 -3 -35 -7 -35
-4 0 -5 -9 -2 -20 8 -30 11 -22 23 57 5 38 13 79 17 89 4 10 -26 -10 -65 -45
-40 -34 -72 -61 -72 -60 0 2 15 52 34 112 32 102 34 125 5 91 -16 -20 -69 -47
-69 -36 0 17 78 128 115 162 35 33 73 90 60 90 -4 0 -21 -11 -38 -24 -50 -36
-65 -43 -46 -20 17 20 59 98 59 110 0 3 -18 -20 -40 -52 -21 -33 -66 -90 -99
-128 -95 -109 -114 -183 -49 -196 l25 -5 -13 -53 c-15 -57 -12 -72 12 -72 22
0 18 -63 -7 -94 -12 -15 -18 -30 -14 -34 3 -4 14 4 24 17 l18 23 7 -58 c4 -32
15 -93 26 -134 21 -83 18 -108 -19 -171 -23 -40 -25 -40 -171 -65 -100 -16
-164 -18 -155 -4 20 32 32 168 23 264 -10 116 -58 215 -141 284 -15 13 -24 29
-20 34 4 7 1 8 -6 4 -7 -5 -20 -1 -29 7 -9 9 -57 32 -106 51 -49 20 -96 42
-105 49 -8 7 -12 7 -8 1 3 -6 36 -28 71 -49 120 -70 211 -180 248 -300 43
-135 23 -287 -54 -424 -31 -54 -137 -174 -168 -191 -11 -6 -41 -5 -80 2 -61
10 -62 11 -39 25 14 8 16 12 6 9 -57 -18 -68 -18 -83 0 -9 11 -13 13 -9 7 5
-10 -15 -13 -82 -13 -78 0 -95 -4 -147 -30 -32 -16 -63 -27 -70 -23 -6 3 -8 3
-4 -2 4 -4 -12 -20 -35 -35 -49 -32 -72 -56 -82 -88 -6 -21 -11 -23 -42 -17
-19 3 -41 9 -49 12 -11 4 -14 -9 -14 -70 l0 -74 63 -9 c76 -11 498 -11 1072 0
321 6 456 5 535 -4 80 -10 189 -10 452 -3 192 5 351 13 354 16 4 4 9 29 12 57
4 40 -1 60 -22 102 -33 66 -60 86 -155 113 -71 19 -77 23 -88 55 -14 41 -10
109 19 338 26 213 26 213 72 236 21 10 57 39 79 65 23 25 72 78 109 116 97
102 173 265 193 414 7 51 8 54 22 35 8 -10 21 -32 28 -49 l13 -29 16 38 c40
96 39 241 -4 378 -11 34 -18 63 -16 65 3 3 49 -10 79 -22 27 -11 21 10 -25 82
-23 36 -51 93 -64 127 -23 63 -52 251 -41 262 3 4 45 -6 92 -21 96 -30 139
-29 172 8 36 39 46 70 46 142 0 87 -19 131 -75 179 -35 30 -40 39 -28 47 53
35 106 63 161 84 78 31 112 62 151 140 23 45 32 78 36 131 5 86 -9 134 -49
168 -34 29 -132 62 -234 78 -38 7 -71 12 -73 13 -1 1 -16 51 -33 111 -16 59
-44 135 -61 167 -54 101 -184 202 -302 233 -57 15 -278 17 -386 3z m620 -393
c0 -14 -10 -30 -25 -40 -23 -15 -25 -15 -35 3 -14 27 -13 47 6 65 21 21 54 4
54 -28z m425 -230 c18 -13 18 -14 -1 -23 -10 -6 -48 -16 -84 -22 -36 -7 -80
-21 -97 -31 l-33 -19 0 23 c0 44 70 86 146 86 27 0 59 -6 69 -14z m40 -212
c-22 -58 -69 -121 -108 -144 -45 -28 -53 -25 -24 10 34 39 123 198 134 235 8
29 8 28 11 -14 2 -25 -4 -64 -13 -87z m-924 -191 c13 -16 12 -17 -3 -4 -10 7
-18 15 -18 17 0 8 8 3 21 -13z m139 -48 c0 -6 6 -12 13 -12 19 0 103 -59 110
-78 8 -20 -6 -19 -53 5 -37 19 -63 47 -90 100 -12 23 -12 24 3 11 10 -7 17
-19 17 -26z m-70 -72 c0 -5 -14 13 -30 39 -17 27 -30 51 -30 55 0 5 14 -13 30
-39 17 -27 30 -51 30 -55z m163 -88 c57 -27 78 -43 32 -25 -57 22 -102 51
-135 87 l-35 38 40 -37 c22 -20 66 -49 98 -63z m265 12 c19 -18 41 -44 50 -59
15 -26 40 -43 49 -34 2 2 -16 35 -40 72 l-45 69 25 7 c49 13 146 -70 159 -137
9 -50 -4 -123 -27 -146 -35 -35 -111 -21 -160 31 -49 52 -169 226 -169 245 0
25 120 -11 158 -48z m-283 -216 c-12 -10 -65 -24 -65 -16 0 2 15 9 33 14 43
12 42 12 32 2z m-320 -1661 c-14 -44 -30 -373 -21 -432 l7 -46 100 -43 c103
-44 145 -75 155 -116 14 -55 -27 -74 -45 -20 -14 39 -47 84 -56 75 -4 -3 1
-20 9 -37 9 -16 16 -39 16 -51 0 -19 -6 -20 -109 -20 l-109 0 -11 28 c-6 15
-12 41 -14 59 -1 17 -4 31 -7 30 -3 -1 -27 18 -53 42 l-47 44 0 88 c0 53 -8
123 -20 175 -17 70 -18 89 -8 96 7 5 44 27 81 49 38 23 83 54 100 70 38 34 40
35 32 9z m-759 -128 c-4 -3 -6 1 -6 9 0 7 -11 -3 -25 -24 -14 -20 -30 -37 -36
-37 -6 0 -9 3 -7 8 2 4 14 30 28 59 l25 51 13 -30 c7 -17 11 -33 8 -36z m493
-189 c17 -109 15 -153 -6 -153 -41 1 -46 13 -41 121 5 157 26 171 47 32z
m-395 -20 c3 -42 6 -103 6 -137 0 -43 7 -76 24 -112 13 -28 27 -65 31 -83 l7
-31 -237 0 -236 0 7 49 c8 64 -14 103 -79 141 l-49 28 92 48 c51 27 120 74
154 105 49 45 64 54 77 46 14 -9 94 0 190 22 3 0 9 -33 13 -76z m-504 28 c0
-5 -7 -17 -16 -25 -17 -17 -5 -22 14 -6 6 6 10 7 7 4 -3 -4 1 -14 8 -22 9 -13
9 -14 0 -8 -7 4 -13 3 -13 -3 0 -8 -18 -17 -50 -26 -3 -1 -22 -9 -42 -18 -54
-24 -59 -20 -13 8 22 14 37 25 34 25 -6 0 61 77 69 79 1 1 2 -3 2 -8z m98 -3
c-5 -15 -60 -47 -71 -41 -13 7 3 23 24 23 24 0 25 17 2 23 -10 3 -3 5 15 6 22
1 32 -3 30 -11z m-504 -172 c108 -33 177 -120 150 -190 -10 -26 -23 -18 -34
22 -12 43 -27 64 -56 80 -20 11 -20 10 3 -35 12 -26 23 -57 23 -70 0 -24 0
-24 -30 -7 -16 10 -43 37 -60 61 -42 58 -53 54 -22 -7 14 -28 22 -53 19 -57
-11 -10 -229 -16 -329 -8 l-95 7 7 38 c12 67 83 138 165 168 44 16 204 14 259
-2z m351 -31 c11 -3 37 -22 58 -44 31 -31 40 -47 41 -77 1 -33 -2 -39 -21 -42
-18 -3 -20 1 -16 18 7 27 -16 101 -37 117 -26 21 -35 14 -13 -9 25 -29 34 -72
21 -110 -9 -26 -14 -28 -64 -28 l-53 0 -7 38 c-9 48 -43 122 -58 123 -6 1 12
7 39 14 28 8 59 11 70 9 11 -3 29 -7 40 -9z"/>
<path d="M2455 4211 c-3 -5 -2 -12 3 -15 5 -3 9 1 9 9 0 17 -3 19 -12 6z"/>
<path d="M2483 4195 c0 -8 4 -12 9 -9 5 3 6 10 3 15 -9 13 -12 11 -12 -6z"/>
<path d="M2101 2171 l-24 -19 21 -6 c12 -4 26 -5 31 -1 5 3 12 -5 14 -17 3
-14 5 -8 6 15 0 21 -3 36 -8 33 -5 -4 -11 -2 -13 3 -1 6 -14 2 -27 -8z"/>
<path d="M1990 2102 c-25 -22 -30 -31 -20 -37 9 -5 11 -4 6 3 -4 7 -3 12 3 12
5 0 13 -4 16 -10 3 -5 11 -10 17 -10 6 0 6 6 -2 15 -7 9 -10 19 -6 22 4 4 11
1 16 -7 5 -8 13 -11 17 -6 4 5 2 11 -4 13 -7 3 -13 9 -13 15 0 6 7 7 16 4 8
-3 12 -2 9 4 -9 15 -18 12 -55 -18z"/>
<path d="M2132 2080 c0 -14 2 -19 5 -12 2 6 2 18 0 25 -3 6 -5 1 -5 -13z"/>
<path d="M1991 1964 c0 -11 3 -14 6 -6 3 7 2 16 -1 19 -3 4 -6 -2 -5 -13z"/>
<path d="M2032 1960 c0 -14 2 -19 5 -12 2 6 2 18 0 25 -3 6 -5 1 -5 -13z"/>
<path d="M2011 1943 c0 -17 -4 -40 -7 -50 -5 -15 -4 -15 5 -3 9 13 11 12 11
-4 0 -11 2 -17 4 -15 3 3 1 27 -3 54 -7 38 -9 43 -10 18z"/>
<path d="M2011 1834 c0 -11 3 -14 6 -6 3 7 2 16 -1 19 -3 4 -6 -2 -5 -13z"/>
<path d="M2011 1737 c2 -1 13 -9 24 -17 19 -14 19 -14 6 3 -7 9 -18 17 -24 17
-6 0 -8 -1 -6 -3z"/>
<path d="M2270 1666 c0 -2 7 -7 16 -10 8 -3 12 -2 9 4 -6 10 -25 14 -25 6z"/>
<path d="M966 1863 c-3 -7 -2 -13 2 -13 5 0 16 6 26 13 16 12 16 13 -3 13 -11
0 -23 -6 -25 -13z"/>
<path d="M355 1560 c-13 -6 -15 -9 -5 -9 8 0 22 4 30 9 18 12 2 12 -25 0z"/>
<path d="M901 1574 c0 -11 3 -14 6 -6 3 7 2 16 -1 19 -3 4 -6 -2 -5 -13z"/>
<path d="M4166 5301 c-21 -23 -44 -157 -52 -306 -3 -60 -14 -161 -25 -223 -16
-96 -25 -123 -56 -173 -27 -41 -43 -57 -53 -53 -8 3 -53 8 -100 10 l-85 3 73
-14 c109 -21 112 -22 112 -56 0 -23 -4 -29 -22 -29 -30 0 -190 -32 -185 -37 2
-2 47 2 100 9 53 6 98 10 100 7 2 -2 7 -22 10 -44 6 -38 5 -41 -36 -68 -31
-22 -36 -27 -17 -23 76 19 73 20 108 -41 18 -32 60 -89 92 -126 l60 -68 0 -70
c0 -69 0 -69 -27 -69 -96 0 -366 67 -500 124 -118 50 -217 27 -258 -60 -21
-45 -16 -110 11 -147 24 -33 76 -61 138 -76 65 -16 107 -38 266 -141 74 -48
172 -108 217 -134 46 -26 85 -51 88 -56 3 -5 -21 -23 -52 -41 -88 -49 -128
-84 -169 -146 -68 -102 -76 -200 -24 -276 86 -125 199 -93 291 82 35 68 51 82
117 105 l42 15 36 -71 c59 -118 124 -201 280 -358 l104 -106 1 -74 c0 -41 -7
-100 -15 -130 -20 -70 -20 -209 -1 -283 25 -96 74 -180 205 -351 17 -21 30
-43 30 -49 0 -5 -30 -6 -78 -2 -48 4 -94 3 -119 -4 -54 -15 -97 -65 -113 -130
-6 -28 -16 -49 -20 -46 -11 7 -27 -16 -34 -51 -8 -34 11 -63 42 -65 9 -1 195
-5 412 -10 217 -5 437 -12 489 -15 59 -3 141 0 215 10 67 8 243 18 391 21 273
6 345 11 345 25 0 4 -8 11 -17 14 -26 10 -253 25 -384 26 -116 0 -179 7 -179
19 0 3 36 47 81 96 90 100 113 139 124 205 19 126 95 213 255 294 164 85 236
137 338 250 95 106 174 247 219 393 24 79 27 103 26 238 0 135 -3 162 -30 265
-53 199 -124 328 -317 575 -239 305 -298 426 -297 610 0 174 87 306 266 404
83 46 140 106 156 164 24 89 -22 176 -116 222 -52 26 -62 27 -148 23 -69 -4
-106 -12 -149 -31 -193 -87 -341 -259 -410 -477 -20 -65 -23 -95 -23 -225 0
-170 12 -228 74 -361 56 -118 141 -239 301 -424 234 -272 311 -401 355 -595
63 -279 8 -539 -148 -693 -34 -34 -73 -70 -86 -79 -24 -16 -24 -16 -17 13 21
93 26 175 16 274 -30 313 -155 599 -347 801 -127 133 -220 190 -483 298 -173
72 -235 117 -282 208 -45 89 -58 156 -35 192 102 160 119 303 53 448 -23 50
-24 59 -16 136 14 115 12 181 -5 280 -18 105 -50 194 -74 207 -44 23 -149 -40
-291 -177 l-96 -91 -44 8 c-25 4 -94 14 -154 21 l-109 12 -141 144 c-146 148
-167 161 -200 124z m77 -83 c19 -24 53 -76 76 -116 l41 -73 -85 -84 c-47 -47
-85 -89 -85 -95 0 -13 9 -8 70 38 35 27 46 31 48 19 2 -9 -4 -27 -13 -41 -10
-15 -14 -33 -10 -45 5 -17 3 -20 -12 -14 -15 6 -16 4 -5 -9 10 -13 8 -16 -18
-21 -16 -4 -50 -25 -75 -48 -25 -23 -45 -39 -45 -36 0 3 6 31 14 61 10 38 13
82 9 138 -7 115 26 368 48 368 4 0 23 -19 42 -42z m2327 -2 c0 -17 -2 -18 -10
-6 -5 8 -13 11 -17 6 -4 -4 -1 -13 7 -19 9 -7 14 -20 12 -29 -4 -21 -18 -24
-26 -5 -3 6 -3 0 0 -14 4 -21 -2 -33 -33 -62 -21 -20 -40 -32 -41 -27 -2 6
-13 -1 -24 -15 -27 -35 -57 -50 -71 -36 -6 6 -18 11 -26 11 -11 0 -10 -4 5
-15 16 -13 17 -16 4 -25 -25 -16 -33 -12 -99 55 -64 65 -64 65 -45 86 24 27
69 50 79 41 5 -4 5 -2 2 4 -12 22 134 74 156 56 6 -5 21 -12 32 -16 26 -7 -21
0 -55 9 -16 4 -13 0 9 -10 23 -10 46 -13 70 -8 l36 7 -37 9 c-56 13 -46 27 17
26 49 -1 55 -4 55 -23z m-1377 -92 c24 -78 34 -268 17 -329 -13 -47 -27 -65
-39 -49 -13 19 -104 94 -113 94 -5 0 4 -12 21 -26 17 -14 29 -30 26 -34 -7
-11 15 -60 27 -60 13 0 9 16 -7 30 -8 7 -15 17 -15 23 0 5 9 0 20 -13 11 -13
20 -29 20 -37 0 -7 4 -13 9 -13 5 0 14 -14 21 -31 8 -17 21 -39 31 -48 20 -19
39 -78 20 -67 -6 4 -11 18 -11 32 0 13 -5 24 -11 24 -8 0 -10 -14 -6 -42 3
-24 3 -36 0 -28 -24 60 -26 76 -12 72 6 -1 5 8 -2 20 -17 33 -23 37 -14 10 5
-19 2 -25 -14 -29 -17 -4 -19 -9 -10 -24 7 -13 6 -19 -1 -19 -7 0 -10 -12 -8
-27 3 -24 -1 -28 -26 -31 -15 -2 -26 0 -23 5 5 8 -174 -3 -203 -13 -12 -4 -11
-7 4 -16 11 -6 30 -12 42 -14 12 -1 32 -5 44 -9 18 -6 20 -9 9 -16 -11 -7 -11
-9 3 -9 9 0 20 -5 23 -10 4 -6 3 -10 -2 -9 -18 3 -27 -2 -16 -9 19 -12 -119
-2 -145 10 -15 8 -20 17 -16 30 5 16 2 18 -23 13 l-28 -6 25 15 c34 21 51 20
43 -1 -3 -10 -3 -15 1 -11 4 3 9 12 10 20 2 7 6 21 11 31 10 25 0 95 -18 115
-17 21 -30 55 -18 47 5 -3 13 0 17 6 4 7 3 9 -3 6 -5 -3 -20 7 -32 23 -19 26
-28 30 -69 30 -41 0 -55 -6 -89 -35 -22 -19 -43 -32 -47 -30 -3 3 -4 2 -2 -1
2 -3 -2 -21 -10 -39 -8 -19 -14 -57 -14 -85 0 -49 -1 -50 -25 -44 -14 3 -25 2
-25 -2 0 -5 -3 -19 -6 -31 -5 -18 0 -25 31 -37 23 -10 34 -20 29 -27 -4 -8 -3
-9 4 -5 7 4 12 2 12 -4 0 -6 5 -8 10 -5 6 3 10 2 10 -3 0 -5 18 -12 40 -16 22
-3 40 -10 40 -14 0 -11 -75 -32 -117 -32 -63 0 -26 -14 70 -26 l92 -12 -75 -2
c-61 -2 -69 -4 -40 -10 19 -4 29 -8 22 -9 -7 0 -10 -6 -7 -11 4 -6 11 -8 16
-4 5 3 8 1 7 -4 -3 -10 103 -116 180 -179 40 -34 45 -35 99 -30 37 4 84 19
133 44 41 21 78 40 83 41 4 2 7 -3 7 -12 0 -19 -53 -70 -107 -103 -47 -27 -48
-29 -31 -39 6 -4 8 -3 5 3 -11 18 20 23 34 7 10 -13 10 -17 -2 -25 -9 -5 -10
-9 -2 -9 18 0 26 19 13 35 -6 7 -7 15 -3 18 9 5 27 -12 30 -30 2 -7 -9 -21
-24 -32 -14 -12 -22 -21 -17 -21 5 0 24 14 42 30 36 32 64 42 35 12 -34 -35
-132 -94 -144 -86 -8 5 -9 3 -4 -6 6 -10 4 -12 -8 -7 -9 3 -18 0 -21 -9 -3 -8
-10 -14 -16 -14 -6 0 -8 4 -5 10 4 6 -1 7 -11 3 -13 -5 -14 -8 -5 -11 11 -4
11 -6 0 -13 -23 -14 0 -10 121 20 85 22 117 27 122 18 5 -8 8 -6 8 6 0 9 5 17
11 17 7 0 9 -10 5 -26 -5 -17 -3 -23 4 -19 5 3 10 17 10 31 0 15 6 24 15 24
13 0 13 -3 3 -22 -22 -38 -65 -97 -69 -95 -2 1 -3 0 -1 -2 5 -8 -41 -50 -49
-45 -5 3 -6 -2 -3 -10 9 -22 27 -20 42 5 7 12 16 19 18 16 3 -3 17 6 32 20 15
14 44 34 64 44 l38 19 -4 -52 c-5 -61 -33 -161 -44 -154 -4 2 -8 -6 -8 -18 -2
-28 -63 -128 -74 -121 -4 3 -6 -3 -4 -12 4 -20 -31 -67 -44 -59 -4 2 -8 -4 -9
-14 -2 -20 14 -18 54 8 12 7 27 11 33 7 6 -4 9 -1 8 6 -2 6 3 14 11 17 9 3 11
0 6 -8 -5 -9 -4 -11 4 -6 6 4 9 11 7 15 -3 4 10 22 28 40 19 18 36 29 38 24 3
-4 3 -2 1 5 -5 21 26 74 39 66 6 -4 8 -3 5 3 -3 5 -1 26 5 46 10 32 14 35 27
24 14 -10 14 -10 3 5 -12 15 -11 55 4 110 6 20 17 17 125 -34 l66 -31 -9 -56
c-5 -31 -13 -58 -19 -59 -5 -2 -7 -7 -4 -12 13 -21 -75 -235 -138 -333 -21
-32 -37 -59 -37 -61 0 -2 11 -3 24 -2 13 0 22 4 20 8 -2 4 13 16 33 28 21 11
62 50 92 86 40 48 57 61 64 52 6 -9 7 -8 3 4 -3 10 1 24 9 32 8 8 15 17 15 21
0 3 11 21 25 39 14 18 25 36 25 39 0 16 74 130 78 119 2 -7 10 -12 18 -12 9 0
12 -4 9 -10 -3 -5 0 -7 8 -5 7 3 25 -4 40 -15 l26 -21 -30 -47 c-16 -26 -35
-56 -42 -67 -41 -67 -130 -174 -139 -169 -7 4 -8 2 -4 -4 7 -12 -52 -101 -67
-102 -5 0 -5 5 -1 12 4 7 3 8 -4 4 -6 -4 -9 -13 -6 -20 3 -7 -1 -20 -8 -27
-38 -41 -40 -47 -19 -59 16 -8 19 -8 15 3 -3 8 16 26 48 47 29 18 63 42 75 53
12 10 26 16 33 12 6 -3 9 -3 8 2 -5 14 55 74 68 69 7 -3 18 3 26 12 12 16 11
16 -7 2 -11 -8 -5 2 14 23 19 20 39 33 44 30 6 -3 7 -2 4 4 -8 13 47 66 58 56
4 -5 5 -3 2 3 -4 6 5 22 19 35 l25 24 34 -40 c19 -22 34 -44 34 -50 1 -5 -4
-3 -10 5 -9 13 -10 13 -6 -1 3 -9 0 -23 -6 -30 -9 -10 -8 -10 6 1 14 10 20 11
30 1 9 -10 7 -16 -9 -29 -96 -75 -140 -107 -146 -104 -5 1 -7 -2 -6 -6 4 -10
-117 -123 -124 -117 -3 3 -11 -3 -19 -12 -13 -16 -12 -17 4 -4 34 27 16 -6
-23 -43 -44 -40 -48 -51 -24 -60 8 -3 12 -2 9 4 -8 12 112 73 127 64 6 -4 8
-3 5 3 -3 5 37 31 90 56 53 26 100 43 103 37 3 -5 11 -5 20 0 13 9 13 10 0 11
-8 0 1 7 20 14 42 16 61 18 40 5 -13 -8 -12 -10 3 -10 9 0 18 8 18 18 1 16 2
16 6 -1 2 -9 8 -15 12 -12 5 2 13 -7 20 -21 6 -15 7 -23 1 -19 -18 11 -10 -10
11 -28 14 -12 18 -24 13 -39 -4 -12 -2 -18 4 -14 5 3 12 -3 15 -14 3 -13 0
-20 -10 -20 -8 0 -11 5 -7 11 4 8 1 8 -12 1 -11 -5 -55 -17 -99 -26 -44 -8
-113 -29 -153 -46 -40 -17 -78 -28 -84 -24 -7 4 -8 3 -4 -4 8 -14 -30 -36 -46
-26 -7 4 -8 3 -4 -4 8 -13 -28 -35 -39 -24 -5 4 -5 1 -1 -5 6 -11 -6 -19 -16
-11 -6 4 -55 -48 -54 -57 1 -13 27 -13 45 0 21 15 345 12 419 -4 67 -15 78
-27 35 -37 -69 -15 -79 -21 -32 -20 26 0 45 5 42 10 -3 4 5 5 18 1 17 -4 20
-3 10 3 -11 8 -11 11 0 18 7 4 14 3 17 -4 2 -6 9 -9 17 -6 7 3 21 -6 30 -20
14 -21 17 -45 13 -130 -2 -58 -6 -108 -10 -111 -11 -11 -149 45 -141 58 4 7 0
8 -11 4 -10 -4 -32 -1 -49 7 -41 18 -158 46 -192 46 -14 0 -24 4 -20 9 3 5 0
13 -6 17 -8 4 -9 3 -5 -4 5 -8 -22 -12 -91 -14 l-98 -3 50 -19 c72 -27 235
-104 235 -111 0 -4 -5 -3 -12 1 -7 4 -8 3 -4 -4 4 -6 13 -9 20 -6 7 3 19 -2
26 -11 7 -8 18 -15 24 -15 7 0 32 -18 56 -40 24 -22 40 -40 34 -40 -6 0 -21
12 -35 26 -13 14 -40 33 -59 42 -19 9 -38 17 -41 19 -4 2 -9 -3 -12 -11 -4
-10 -1 -13 8 -10 15 6 95 -34 95 -47 0 -4 3 -16 7 -26 6 -16 5 -16 -10 -4 -9
7 -17 19 -17 26 0 14 -57 41 -67 31 -3 -3 -2 -6 3 -6 6 0 8 -16 6 -35 -2 -19
0 -35 6 -35 5 0 12 -7 16 -15 4 -12 0 -14 -22 -10 l-27 5 28 -12 c15 -7 27
-16 27 -20 0 -5 -9 -4 -21 2 -11 7 -33 9 -47 5 -26 -6 -26 -6 -7 9 19 15 19
16 -8 6 -20 -7 -26 -7 -21 1 4 7 -2 9 -17 7 -19 -2 -23 1 -21 17 2 16 1 17 -7
5 -8 -11 -14 -12 -33 -3 -13 7 -39 15 -58 19 -40 7 -62 22 -54 35 3 5 -2 6
-11 2 -13 -4 -14 -8 -4 -14 7 -4 -28 -7 -77 -6 -73 2 -89 -1 -89 -13 0 -8 6
-16 13 -16 6 -1 19 -2 28 -3 9 0 12 -6 8 -13 -4 -7 -3 -8 4 -4 15 9 113 -34
106 -46 -4 -6 2 -8 15 -3 16 5 20 3 15 -9 -3 -9 -1 -16 5 -16 6 0 11 5 11 10
0 6 5 10 11 10 6 0 9 -6 6 -12 -3 -12 -10 -14 -59 -17 -15 -1 -18 -10 -18 -48
0 -48 -20 -83 -47 -83 -8 0 -12 -4 -9 -9 3 -4 -39 7 -94 26 -95 32 -101 33
-122 18 -22 -16 -22 -17 -2 -11 14 4 35 -4 65 -25 24 -18 46 -35 49 -38 3 -4
31 -24 63 -45 31 -22 57 -42 57 -46 0 -4 11 -13 25 -20 44 -24 27 -27 -32 -7
-32 11 -84 21 -115 23 -31 1 -65 7 -77 13 -25 14 -42 14 -18 0 28 -16 19 -28
-12 -16 -17 6 -28 14 -26 17 2 3 -5 6 -15 6 -10 0 -16 -4 -14 -8 3 -4 1 -8 -4
-8 -12 0 -52 39 -52 50 0 6 -3 9 -7 9 -21 -3 -31 3 -29 19 0 10 -6 16 -16 16
-12 -1 -18 5 -18 20 0 17 -2 18 -10 6 -11 -18 6 -41 25 -34 8 3 12 -1 12 -11
-1 -10 6 -22 16 -29 10 -6 33 -24 51 -41 18 -16 100 -72 182 -123 82 -51 165
-106 184 -123 37 -33 36 -33 -25 -5 -22 10 -76 25 -120 32 -44 8 -93 19 -109
24 -36 12 -39 12 -31 0 3 -5 15 -10 26 -10 27 0 24 -14 -8 -28 -61 -28 -73
-38 -88 -75 -8 -20 -15 -44 -15 -52 0 -8 -2 -15 -5 -15 -14 0 -172 119 -251
189 -97 85 -158 157 -217 253 -74 123 -90 225 -58 381 21 100 21 110 6 159
-21 71 -20 85 2 67 29 -23 -62 82 -117 136 -119 115 -300 361 -300 408 0 15
32 26 155 56 44 11 87 22 95 25 13 5 18 -8 29 -69 7 -41 17 -75 23 -75 6 0 7
-8 3 -17 -5 -14 -4 -15 6 -6 9 10 10 18 2 35 -6 13 -14 33 -16 45 -4 19 -1 22
16 19 12 -2 17 -1 10 1 -7 2 -9 12 -6 21 6 15 5 15 -10 3 -9 -7 -17 -9 -17 -3
0 12 28 24 40 17 4 -3 10 5 13 16 4 16 11 20 26 16 12 -3 19 -1 16 3 -7 12 36
41 49 33 6 -3 8 -2 3 2 -4 5 10 27 30 48 21 22 32 37 26 33 -7 -4 -13 -5 -13
-2 0 13 34 75 39 72 3 -2 7 7 7 20 2 22 -4 19 -47 -27 -44 -46 -51 -50 -66
-38 -16 13 -17 12 -5 -2 11 -14 7 -20 -25 -40 -53 -33 -53 -33 -53 -7 0 14 3
18 8 11 4 -7 13 -9 21 -4 10 7 9 9 -3 14 -10 4 -16 18 -16 37 0 16 -4 30 -10
30 -5 0 -10 -9 -10 -20 0 -35 -39 -102 -56 -96 -8 3 -13 2 -9 -3 3 -5 -30 -17
-72 -26 -43 -10 -88 -21 -101 -26 -20 -8 -22 -7 -12 10 7 14 7 22 0 26 -6 4
-10 12 -9 18 2 15 -26 80 -53 126 -18 29 -22 31 -30 16 -6 -9 -8 -51 -6 -93 3
-68 1 -77 -14 -76 -10 1 -15 -2 -12 -8 3 -5 14 -6 25 -3 10 4 19 2 19 -3 0 -5
-9 -12 -20 -15 -14 -4 -26 4 -42 26 -12 18 -26 35 -31 38 -5 4 -11 17 -12 30
-4 38 -4 39 -17 39 -9 0 -9 -3 0 -12 20 -20 13 -32 -8 -13 -16 14 -21 15 -24
4 -10 -27 0 -84 13 -81 8 2 11 -3 8 -12 -3 -8 -2 -16 2 -18 5 -2 11 -13 15
-24 6 -18 -1 -24 -45 -43 -28 -12 -54 -20 -57 -16 -4 3 0 10 7 14 9 6 10 11 2
15 -6 4 -11 2 -11 -3 0 -6 -5 -11 -10 -11 -6 0 -10 8 -8 18 2 9 -3 16 -10 14
-7 -1 -15 5 -18 13 -4 8 -15 15 -25 15 -24 0 -25 -29 -3 -94 9 -26 13 -50 10
-53 -3 -4 -6 -1 -6 6 0 7 -5 9 -10 6 -16 -10 -52 5 -47 19 3 7 -1 13 -9 13
-19 0 -18 -1 16 -38 39 -43 30 -50 -15 -10 -20 17 -38 31 -41 31 -11 0 17 -37
55 -75 23 -21 41 -45 41 -52 0 -23 -30 -26 -52 -7 l-21 19 18 -27 c10 -16 13
-28 7 -28 -6 0 -16 9 -22 21 -7 11 -14 18 -17 15 -4 -3 2 -15 12 -27 17 -17
17 -22 5 -29 -26 -16 -56 -11 -84 15 -33 31 -46 64 -46 120 0 58 12 86 57 136
43 48 240 182 254 173 5 -3 8 0 7 8 -2 7 3 12 10 10 6 -1 11 1 10 5 -3 12 21
55 51 88 26 29 26 30 1 9 -14 -12 -36 -28 -50 -37 l-25 -16 7 142 c3 78 14
187 23 242 11 66 15 125 11 173 -6 73 -6 74 -71 148 -35 41 -72 88 -81 105
-19 37 -13 43 47 53 21 3 41 11 45 18 5 8 2 9 -9 5 -9 -3 -40 -9 -69 -13 -46
-6 -50 -5 -37 8 8 9 16 15 19 13 3 -1 28 6 55 16 43 17 45 19 15 14 -25 -4
-31 -2 -20 5 8 5 27 10 42 10 15 0 30 5 33 10 4 6 -19 11 -62 11 -96 3 -100 3
-109 12 -5 4 42 6 104 4 96 -4 111 -2 101 9 -7 8 -9 17 -6 20 8 8 224 7 237
-1 21 -13 20 24 -3 69 -27 53 -36 52 -31 -2 3 -32 2 -34 -7 -13 -7 18 -3 51
18 132 14 59 31 105 36 102 5 -3 7 -14 4 -24 -3 -11 -1 -17 4 -13 12 7 11 41
-1 49 -14 9 -13 26 2 23 6 -2 14 5 16 16 2 11 0 16 -7 12 -17 -11 -13 4 15 51
14 24 29 41 34 38 4 -3 10 -23 12 -46 3 -35 2 -38 -9 -23 -7 10 -13 14 -13 8
0 -5 6 -17 14 -26 11 -16 13 -15 27 4 47 68 82 102 110 105 19 2 28 -1 24 -7
-4 -6 -11 -7 -17 -4 -6 4 -8 2 -5 -3 4 -6 0 -24 -8 -39 -8 -16 -15 -40 -15
-54 1 -24 2 -23 32 13 24 29 33 35 40 25 6 -9 7 -6 3 9 -4 16 0 26 20 39 23
15 27 15 50 0 14 -9 23 -22 19 -28 -4 -6 -3 -8 4 -4 6 3 15 -1 20 -10 12 -21
36 -8 27 14 -3 9 -2 13 2 8 4 -4 8 -17 8 -29 0 -33 20 -30 33 5 28 79 203 323
225 315 6 -2 20 -30 30 -63z m953 -69 c-3 -8 -1 -15 4 -15 6 0 10 -7 10 -16 0
-9 -5 -12 -12 -8 -7 4 -8 3 -4 -4 4 -7 3 -28 -3 -47 -5 -21 -6 -33 0 -30 5 4
9 1 9 -4 0 -6 -4 -11 -10 -11 -5 0 -7 -7 -4 -15 5 -13 2 -13 -27 -1 -19 7 -42
16 -52 19 -15 6 -16 10 -6 29 36 67 114 151 95 103z m-1658 -96 c-7 -5 -8 -9
-2 -9 7 0 7 -23 -2 -77 -15 -93 -23 -115 -37 -106 -7 4 -8 0 -4 -12 4 -9 3
-23 -2 -29 -5 -6 -11 -38 -12 -71 -2 -64 -26 -131 -53 -154 -16 -14 -17 -10
-15 56 1 38 -1 75 -5 82 -4 7 -5 19 -2 28 4 9 0 23 -8 32 -21 23 -26 108 -6
96 6 -4 7 -11 4 -17 -5 -7 -2 -8 6 -3 9 5 10 2 6 -13 -4 -11 -2 -23 3 -26 12
-8 11 34 -1 51 -13 16 0 73 21 102 18 24 18 24 26 -53 4 -43 11 -74 16 -70 5
3 6 10 3 16 -5 7 -2 8 6 3 10 -6 12 -4 7 9 -4 10 -4 36 0 59 l6 42 13 -30 c16
-36 18 -18 4 21 -6 15 -8 35 -4 43 4 9 6 24 5 33 -1 12 3 15 19 11 17 -4 18
-8 8 -14z m-174 -104 c-4 -8 -8 -15 -10 -15 -2 0 -4 7 -4 15 0 8 4 15 10 15 5
0 7 -7 4 -15z m1735 -17 c22 -12 38 -25 35 -30 -3 -4 1 -6 8 -3 7 3 27 -4 43
-16 17 -12 22 -19 13 -15 -10 3 -20 1 -23 -5 -4 -5 -1 -8 7 -7 7 2 13 -4 13
-12 0 -8 4 -20 8 -26 5 -9 -20 -10 -91 -7 -53 3 -98 6 -100 8 -6 5 31 135 38
135 5 0 26 -10 49 -22z m-1755 -117 c11 -4 21 -16 22 -27 2 -10 6 -31 10 -46
5 -22 1 -32 -16 -46 -18 -15 -23 -28 -23 -65 l1 -47 -29 15 c-34 18 -43 48
-37 116 4 33 13 58 28 74 l22 23 -24 5 c-23 4 -23 4 2 5 14 0 34 -3 44 -7z
m-86 -24 c-25 -21 -41 -75 -36 -126 4 -39 2 -48 -9 -44 -9 4 -12 15 -7 39 4
22 2 34 -5 34 -6 0 -11 10 -11 22 0 21 0 21 -22 2 -22 -19 -22 -19 -8 1 39 51
71 81 91 82 18 2 19 0 7 -10z m603 -4 c13 -15 12 -15 -6 -6 -11 6 -27 13 -35
16 -10 4 -8 6 6 6 12 1 28 -6 35 -16z m-22 -30 c20 -23 23 -34 19 -80 -7 -86
-69 -147 -127 -127 -25 9 -26 11 -22 89 2 44 8 86 14 93 20 25 -1 22 -33 -5
-27 -22 -31 -24 -22 -7 11 20 49 50 82 66 25 12 64 -1 89 -29z m1271 -68 l55
-6 3 -52 c1 -29 4 -66 7 -84 4 -28 2 -32 -26 -38 -19 -4 -36 -2 -47 7 -15 11
-16 11 -4 -3 11 -15 8 -18 -23 -23 -19 -4 -40 -4 -47 0 -7 4 -8 3 -4 -4 4 -7
3 -12 -2 -12 -14 0 -20 31 -28 137 l-7 91 34 -3 c19 -2 59 -7 89 -10z m-883
-42 c-3 -10 -5 -4 -5 12 0 17 2 24 5 18 2 -7 2 -21 0 -30z m-1073 -18 c6 -6
30 -22 53 -35 42 -23 49 -47 11 -34 -11 3 -26 7 -32 8 -6 2 -28 6 -48 11 -40
8 -44 14 -29 43 5 9 13 26 17 37 7 19 7 19 12 1 2 -11 9 -25 16 -31z m216 -2
c0 -20 -3 -24 -11 -16 -7 7 -9 19 -6 27 10 24 17 19 17 -11z m170 -37 c0 -6
-7 -2 -15 8 -8 11 -15 25 -15 30 0 6 7 2 15 -8 8 -11 15 -25 15 -30z m723 27
c-7 -2 -21 -2 -30 0 -10 3 -4 5 12 5 17 0 24 -2 18 -5z m-159 -62 c11 -4 15
-10 10 -13 -5 -4 -20 0 -34 8 -26 14 -9 18 24 5z m83 -37 c-6 -6 -47 9 -47 17
0 5 11 3 25 -3 14 -6 24 -13 22 -14z m40 -10 c-3 -3 -12 -4 -19 -1 -8 3 -5 6
6 6 11 1 17 -2 13 -5z m-187 -19 c16 -8 33 -14 37 -14 4 1 19 -3 33 -9 37 -16
13 -14 -50 4 -30 9 -77 18 -105 21 -69 7 -70 13 -1 13 31 0 70 -7 86 -15z
m-913 -1 c-3 -3 -12 -4 -19 -1 -8 3 -5 6 6 6 11 1 17 -2 13 -5z m770 -40 c-3
-3 -12 -4 -19 -1 -8 3 -5 6 6 6 11 1 17 -2 13 -5z m126 -11 c-7 -2 -19 -2 -25
0 -7 3 -2 5 12 5 14 0 19 -2 13 -5z m-178 -19 c27 -9 30 -12 10 -8 -16 4 -52
10 -80 14 -48 7 -49 8 -10 8 22 0 58 -6 80 -14z m85 -24 c18 -12 2 -12 -25 0
-13 6 -15 9 -5 9 8 0 22 -4 30 -9z m-142 -17 c-10 -2 -28 -2 -40 0 -13 2 -5 4
17 4 22 1 32 -1 23 -4z m196 -2 c4 -5 -3 -7 -14 -4 -23 6 -26 13 -6 13 8 0 17
-4 20 -9z m-180 -18 c-15 -3 -20 -10 -17 -22 3 -10 0 -22 -6 -25 -6 -4 -9 -1
-5 7 3 8 0 18 -5 22 -18 11 -2 25 27 24 22 -1 23 -3 6 -6z m86 -3 c18 -12 2
-12 -25 0 -13 6 -15 9 -5 9 8 0 22 -4 30 -9z m165 0 c-3 -5 -12 -10 -18 -10
-7 0 -6 4 3 10 19 12 23 12 15 0z m-192 -17 c-7 -2 -19 -2 -25 0 -7 3 -2 5 12
5 14 0 19 -2 13 -5z m388 -11 c-5 -10 -18 -25 -28 -33 -16 -12 -17 -12 -6 2 7
9 9 20 5 24 -4 5 -2 5 4 2 7 -4 14 0 18 8 3 8 8 15 11 15 3 0 1 -8 -4 -18z
m-416 -12 c10 -11 14 -20 9 -20 -5 0 -15 9 -22 20 -7 11 -11 20 -9 20 2 0 12
-9 22 -20z m-28 -15 c0 -8 -4 -12 -9 -9 -5 3 -6 10 -3 15 9 13 12 11 12 -6z
m367 -56 c-28 -30 -74 -59 -91 -59 -4 1 9 10 30 21 25 13 37 25 33 34 -3 9 0
12 10 8 17 -6 19 13 2 21 -7 3 -3 3 10 0 14 -3 22 -1 22 7 0 7 3 9 7 6 3 -4
-7 -21 -23 -38z m1046 31 c0 -5 -5 -10 -11 -10 -5 0 -7 -5 -4 -11 4 -6 1 -10
-6 -8 -32 4 -43 -1 -31 -13 7 -7 12 -17 12 -22 0 -6 -5 -4 -10 4 -6 10 -10 11
-10 3 0 -7 -4 -13 -9 -13 -23 0 -5 44 21 54 16 6 28 14 28 18 0 4 5 8 10 8 6
0 10 -4 10 -10z m-1360 -28 c0 -15 -2 -15 -10 -2 -13 20 -13 33 0 25 6 -3 10
-14 10 -23z m34 13 c3 -8 1 -15 -4 -15 -6 0 -10 7 -10 15 0 8 2 15 4 15 2 0 6
-7 10 -15z m0 -41 c5 -14 4 -15 -9 -4 -17 14 -19 20 -6 20 5 0 12 -7 15 -16z
m226 6 c-8 -5 -19 -10 -25 -10 -5 0 -3 5 5 10 8 5 20 10 25 10 6 0 3 -5 -5
-10z m1041 -40 c8 11 9 9 4 -9 -4 -13 -3 -21 2 -18 5 3 20 -3 33 -14 18 -14
20 -17 6 -12 -14 5 -17 3 -11 -7 5 -8 3 -11 -6 -8 -19 6 -80 98 -73 110 4 6
13 -5 21 -23 11 -27 16 -31 24 -19z m-2439 -86 c62 -20 119 -41 126 -47 6 -5
13 -24 13 -41 2 -31 2 -31 6 -3 3 20 9 27 21 23 9 -2 31 -7 48 -11 27 -5 32
-11 37 -43 4 -20 3 -39 -1 -42 -12 -9 -14 -50 -2 -50 6 0 22 -12 35 -27 19
-22 23 -35 19 -60 -4 -21 -2 -33 5 -33 6 0 11 12 12 28 1 42 6 75 18 102 7 20
9 11 5 -39 -4 -70 -24 -153 -31 -133 -3 6 -9 12 -14 12 -6 0 -7 -5 -3 -11 7
-13 -23 2 -77 38 -31 20 -35 28 -31 54 3 17 7 26 11 21 4 -6 6 18 6 53 0 35
-3 66 -6 69 -3 3 -11 -32 -18 -79 l-13 -85 -27 19 c-52 37 -147 79 -206 91
-33 7 -63 17 -67 24 -13 20 -8 71 9 95 9 14 11 21 5 17 -22 -14 -44 -68 -37
-93 5 -22 3 -24 -17 -18 -34 11 -47 24 -57 60 -20 73 26 136 106 144 7 0 64
-15 125 -35z m1468 26 c0 -5 -5 -10 -11 -10 -5 0 -7 5 -4 10 3 6 8 10 11 10 2
0 4 -4 4 -10z m40 -20 c0 -5 -2 -10 -4 -10 -3 0 -8 5 -11 10 -3 6 -1 10 4 10
6 0 11 -4 11 -10z m850 -1775 c0 -10 -16 -4 -40 16 l-25 20 33 -16 c17 -8 32
-18 32 -20z m-205 -24 c-3 -5 2 -11 10 -13 13 -2 13 -5 -3 -14 -16 -10 -18 -9
-16 10 3 26 3 26 10 26 3 0 3 -4 -1 -9z m21 -46 c-16 -14 -32 -25 -35 -25 -8
1 48 50 57 50 4 0 -6 -11 -22 -25z m84 -21 c0 -2 -9 0 -20 6 -11 6 -20 13 -20
16 0 2 9 0 20 -6 11 -6 20 -13 20 -16z m-50 12 c0 -2 -7 -7 -16 -10 -8 -3 -12
-2 -9 4 6 10 25 14 25 6z m-185 -106 c3 -6 -1 -7 -9 -4 -18 7 -21 14 -7 14 6
0 13 -4 16 -10z m-285 -100 c13 -8 13 -10 -2 -10 -9 0 -20 5 -23 10 -8 13 5
13 25 0z m-490 -251 c31 -7 72 -27 108 -53 31 -23 72 -51 90 -61 17 -11 32
-22 32 -26 0 -17 -296 -37 -318 -21 -11 7 -11 18 -3 48 15 53 7 53 -18 -1 -19
-40 -25 -45 -55 -45 -44 0 -60 20 -52 64 8 43 43 77 93 93 49 15 62 15 123 2z
m748 -10 c47 -12 182 -93 182 -109 0 -25 -110 -57 -227 -66 l-83 -7 0 27 c0
15 5 37 12 49 10 20 10 21 -5 9 -9 -8 -22 -29 -29 -48 -14 -41 -45 -45 -95
-14 -25 15 -33 27 -33 48 0 35 37 92 70 109 31 16 146 17 208 2z"/>
<path d="M4274 4878 l-19 -23 23 19 c12 11 22 21 22 23 0 8 -8 2 -26 -19z"/>
<path d="M6405 5190 c3 -5 13 -10 21 -10 8 0 12 5 9 10 -3 6 -13 10 -21 10 -8
0 -12 -4 -9 -10z"/>
<path d="M6450 5135 c0 -38 3 -44 18 -39 14 5 14 4 2 -5 -8 -5 -11 -13 -7 -18
14 -13 22 14 19 61 -3 31 -9 46 -18 46 -10 0 -14 -13 -14 -45z"/>
<path d="M6370 5089 c0 -5 5 -7 10 -4 6 3 10 8 10 11 0 2 -4 4 -10 4 -5 0 -10
-5 -10 -11z"/>
<path d="M6402 5082 c-7 -5 -16 -22 -21 -39 -8 -27 -7 -30 10 -26 11 3 19 14
19 25 0 11 9 22 20 25 11 3 20 9 20 14 0 11 -31 11 -48 1z"/>
<path d="M6250 5066 c0 -4 9 -19 20 -33 11 -14 20 -21 20 -16 0 6 -9 20 -20
33 -11 13 -20 20 -20 16z"/>
<path d="M6300 5011 c0 -12 29 -35 36 -28 4 3 -1 13 -9 22 -17 17 -27 19 -27
6z"/>
<path d="M4800 4900 c8 -5 20 -10 25 -10 6 0 3 5 -5 10 -8 5 -19 10 -25 10 -5
0 -3 -5 5 -10z"/>
<path d="M4520 4851 c0 -6 4 -13 10 -16 6 -3 7 1 4 9 -7 18 -14 21 -14 7z"/>
<path d="M4606 4823 c-6 -14 -5 -15 5 -6 7 7 10 15 7 18 -3 3 -9 -2 -12 -12z"/>
<path d="M5040 4805 c0 -2 10 -10 23 -16 20 -11 21 -11 8 4 -13 16 -31 23 -31
12z"/>
<path d="M4521 4774 c0 -11 3 -14 6 -6 3 7 2 16 -1 19 -3 4 -6 -2 -5 -13z"/>
<path d="M4820 4746 c0 -2 7 -7 16 -10 8 -3 12 -2 9 4 -6 10 -25 14 -25 6z"/>
<path d="M4482 4680 c0 -14 2 -19 5 -12 2 6 2 18 0 25 -3 6 -5 1 -5 -13z"/>
<path d="M4922 4630 c0 -14 2 -19 5 -12 2 6 2 18 0 25 -3 6 -5 1 -5 -13z"/>
<path d="M4885 4619 c-4 -6 -4 -13 -1 -16 3 -4 6 -1 6 6 0 7 5 9 12 5 7 -4 8
-3 4 4 -9 15 -13 15 -21 1z"/>
<path d="M4904 4551 c1 -17 26 -28 26 -11 0 6 -4 9 -9 5 -5 -3 -11 0 -14 7 -2
9 -4 8 -3 -1z"/>
<path d="M4948 4463 c7 -3 16 -2 19 1 4 3 -2 6 -13 5 -11 0 -14 -3 -6 -6z"/>
<path d="M4420 4436 c-19 -6 -34 -17 -33 -23 3 -15 -24 -36 -37 -28 -6 3 -9 9
-6 13 2 4 -12 14 -30 23 -42 20 -44 8 -5 -21 36 -25 46 -52 30 -82 -24 -45
-41 -48 -74 -12 -30 32 -32 21 -5 -23 24 -40 63 -45 81 -11 11 21 12 21 23
-12 30 -90 166 -97 211 -11 l15 29 -48 26 c-33 18 -40 20 -24 7 12 -11 28 -21
35 -24 19 -6 -9 -34 -49 -47 -51 -17 -81 -6 -104 40 -32 62 -27 89 22 132 48
41 48 42 -2 24z"/>
<path d="M4930 4440 c0 -5 7 -7 15 -4 8 4 15 8 15 10 0 2 -7 4 -15 4 -8 0 -15
-4 -15 -10z"/>
<path d="M4518 4343 c7 -3 16 -2 19 1 4 3 -2 6 -13 5 -11 0 -14 -3 -6 -6z"/>
<path d="M4964 3955 c-14 -11 -15 -14 -4 -15 13 0 13 -1 0 -10 -8 -5 -10 -10
-5 -10 6 0 17 5 25 10 12 8 12 10 1 10 -11 0 -11 3 -1 15 16 19 9 19 -16 0z"/>
<path d="M5000 3951 c0 -6 4 -13 10 -16 6 -3 7 1 4 9 -7 18 -14 21 -14 7z"/>
<path d="M5040 3950 c0 -5 5 -10 11 -10 5 0 7 5 4 10 -3 6 -8 10 -11 10 -2 0
-4 -4 -4 -10z"/>
<path d="M4910 3920 c8 -5 20 -10 25 -10 6 0 3 5 -5 10 -8 5 -19 10 -25 10 -5
0 -3 -5 5 -10z"/>
<path d="M4848 3903 c7 -3 16 -2 19 1 4 3 -2 6 -13 5 -11 0 -14 -3 -6 -6z"/>
<path d="M4798 3883 c7 -3 16 -2 19 1 4 3 -2 6 -13 5 -11 0 -14 -3 -6 -6z"/>
<path d="M4725 3860 c3 -5 8 -10 11 -10 2 0 4 5 4 10 0 6 -5 10 -11 10 -5 0
-7 -4 -4 -10z"/>
<path d="M4690 3850 c0 -5 -8 -7 -17 -3 -20 7 -18 4 12 -17 11 -8 17 -10 13
-6 -4 5 -3 15 3 23 9 9 8 13 0 13 -6 0 -11 -4 -11 -10z"/>
<path d="M4768 3838 c5 -5 16 -8 23 -6 8 3 3 7 -10 11 -17 4 -21 3 -13 -5z"/>
<path d="M4718 3833 c7 -3 16 -2 19 1 4 3 -2 6 -13 5 -11 0 -14 -3 -6 -6z"/>
<path d="M5030 3830 c8 -5 20 -10 25 -10 6 0 3 5 -5 10 -8 5 -19 10 -25 10 -5
0 -3 -5 5 -10z"/>
<path d="M5117 3823 c-10 -9 -9 -23 1 -23 5 0 9 7 9 15 0 17 -1 18 -10 8z"/>
<path d="M4555 3800 c-3 -5 -1 -10 4 -10 6 0 11 5 11 10 0 6 -2 10 -4 10 -3 0
-8 -4 -11 -10z"/>
<path d="M5096 3787 c3 -10 9 -15 12 -12 3 3 0 11 -7 18 -10 9 -11 8 -5 -6z"/>
<path d="M4496 3774 c-19 -11 -25 -19 -18 -26 12 -12 56 8 47 22 -3 4 1 11 7
13 7 3 9 6 3 6 -5 0 -23 -7 -39 -15z m14 -14 c-8 -5 -19 -10 -25 -10 -5 0 -3
5 5 10 8 5 20 10 25 10 6 0 3 -5 -5 -10z"/>
<path d="M5120 3769 c0 -5 5 -7 10 -4 6 3 10 8 10 11 0 2 -4 4 -10 4 -5 0 -10
-5 -10 -11z"/>
<path d="M5231 3766 c-9 -10 -8 -15 2 -19 8 -3 13 3 13 14 0 23 0 23 -15 5z"/>
<path d="M5260 3775 c0 -5 5 -17 10 -25 5 -8 10 -10 10 -5 0 6 -5 17 -10 25
-5 8 -10 11 -10 5z"/>
<path d="M5400 3755 c0 -8 4 -15 10 -15 5 0 7 7 4 15 -4 8 -8 15 -10 15 -2 0
-4 -7 -4 -15z"/>
<path d="M5430 3756 c0 -2 7 -7 16 -10 8 -3 12 -2 9 4 -6 10 -25 14 -25 6z"/>
<path d="M5261 3720 c0 -8 4 -22 9 -30 12 -18 12 -2 0 25 -6 13 -9 15 -9 5z"/>
<path d="M4420 3713 c0 -5 5 -15 10 -23 7 -12 9 -10 7 8 -1 19 -17 33 -17 15z"/>
<path d="M4331 3594 c-24 -31 -28 -52 -6 -34 8 7 12 16 9 21 -7 12 10 11 22
-1 6 -6 10 -3 11 10 3 31 -14 33 -36 4z"/>
<path d="M5365 3610 c-3 -5 -1 -10 4 -10 6 0 11 5 11 10 0 6 -2 10 -4 10 -3 0
-8 -4 -11 -10z"/>
<path d="M5211 3564 c0 -11 3 -14 6 -6 3 7 2 16 -1 19 -3 4 -6 -2 -5 -13z"/>
<path d="M5186 3545 c-3 -9 -6 -22 -5 -28 0 -7 5 -1 10 12 5 13 8 26 5 28 -2
2 -6 -3 -10 -12z"/>
<path d="M4406 3487 c3 -10 9 -15 12 -12 3 3 0 11 -7 18 -10 9 -11 8 -5 -6z"/>
<path d="M5311 3463 c-7 -8 -11 -16 -8 -19 2 -2 10 2 17 11 17 20 9 27 -9 8z"/>
<path d="M5265 3460 c-3 -5 -1 -10 4 -10 6 0 11 5 11 10 0 6 -2 10 -4 10 -3 0
-8 -4 -11 -10z"/>
<path d="M4260 3440 c6 -11 16 -20 23 -19 9 0 9 2 0 6 -7 2 -13 11 -13 19 0 8
-5 14 -10 14 -7 0 -7 -6 0 -20z"/>
<path d="M4241 3424 c0 -11 3 -14 6 -6 3 7 2 16 -1 19 -3 4 -6 -2 -5 -13z"/>
<path d="M5959 3413 c-13 -16 -12 -17 3 -5 14 11 18 10 27 -5 6 -10 11 -13 11
-7 0 6 -6 17 -14 23 -10 9 -17 7 -27 -6z"/>
<path d="M4751 3407 c2 -2 11 -8 20 -15 12 -9 16 -9 16 1 0 7 -9 14 -20 14
-11 1 -18 1 -16 0z"/>
<path d="M6006 3373 c-4 -9 -3 -20 1 -24 4 -4 9 3 9 17 2 28 -1 31 -10 7z"/>
<path d="M4885 3357 c-14 -11 -15 -16 -5 -22 8 -5 11 -4 7 2 -8 13 20 26 35
16 7 -3 8 -1 4 5 -9 15 -18 15 -41 -1z"/>
<path d="M5451 3354 c0 -11 3 -14 6 -6 3 7 2 16 -1 19 -3 4 -6 -2 -5 -13z"/>
<path d="M5959 3353 c-13 -16 -12 -17 4 -4 9 7 17 15 17 17 0 8 -8 3 -21 -13z"/>
<path d="M4917 3316 c-25 -14 -48 -23 -51 -20 -3 2 -4 1 -1 -3 3 -4 -7 -19
-22 -35 -24 -25 -25 -28 -7 -28 11 0 36 12 57 26 21 14 45 23 52 20 9 -3 12 0
9 8 -6 16 35 48 49 39 6 -3 7 -1 3 5 -11 18 -39 14 -89 -12z"/>
<path d="M6045 3319 c-4 -6 -5 -12 -2 -15 2 -3 7 2 10 11 7 17 1 20 -8 4z"/>
<path d="M4520 3310 c-18 -12 -2 -12 25 0 13 6 15 9 5 9 -8 0 -22 -4 -30 -9z"/>
<path d="M4986 3298 c3 -5 10 -6 15 -3 13 9 11 12 -6 12 -8 0 -12 -4 -9 -9z"/>
<path d="M6000 3300 c0 -5 5 -10 11 -10 5 0 7 5 4 10 -3 6 -8 10 -11 10 -2 0
-4 -4 -4 -10z"/>
<path d="M4803 3265 c0 -8 4 -12 9 -9 5 3 6 10 3 15 -9 13 -12 11 -12 -6z"/>
<path d="M4244 3255 c3 -21 16 -31 16 -12 0 9 -4 18 -9 21 -5 4 -8 -1 -7 -9z"/>
<path d="M4895 3240 c3 -5 8 -10 11 -10 2 0 4 5 4 10 0 6 -5 10 -11 10 -5 0
-7 -4 -4 -10z"/>
<path d="M5890 3243 c0 -6 7 -16 15 -23 13 -11 18 -11 28 0 10 10 9 11 -2 5
-9 -5 -19 -1 -28 10 -7 11 -13 14 -13 8z"/>
<path d="M5335 3220 c-3 -5 -1 -10 4 -10 6 0 11 5 11 10 0 6 -2 10 -4 10 -3 0
-8 -4 -11 -10z"/>
<path d="M4064 3197 c0 -13 6 -24 13 -24 9 0 9 6 1 21 -15 30 -16 30 -14 3z"/>
<path d="M5479 3213 c-1 -5 -1 -12 0 -16 1 -5 -9 -6 -21 -2 -21 5 -21 5 -5 -5
10 -7 21 -9 25 -6 7 8 12 36 6 36 -2 0 -5 -3 -5 -7z"/>
<path d="M6158 3123 c7 -3 16 -2 19 1 4 3 -2 6 -13 5 -11 0 -14 -3 -6 -6z"/>
<path d="M6133 3103 c9 -2 23 -2 30 0 6 3 -1 5 -18 5 -16 0 -22 -2 -12 -5z"/>
<path d="M4715 3055 c17 -78 119 -224 153 -217 8 2 11 -1 8 -6 -3 -5 7 -18 23
-29 21 -16 28 -18 28 -7 0 8 -6 14 -13 14 -7 0 -16 4 -19 10 -3 5 0 7 8 4 8
-3 18 -1 22 5 3 6 0 9 -8 5 -8 -3 -23 3 -32 13 -13 13 -20 14 -23 5 -2 -7 -19
6 -39 31 -49 58 -61 78 -90 144 -13 32 -21 45 -18 28z"/>
<path d="M6175 3040 c4 -6 11 -8 16 -5 14 9 11 15 -7 15 -8 0 -12 -5 -9 -10z"/>
<path d="M6124 3019 c-3 -6 -2 -15 3 -20 5 -5 9 -1 9 11 0 23 -2 24 -12 9z"/>
<path d="M4756 3007 c3 -10 9 -15 12 -12 3 3 0 11 -7 18 -10 9 -11 8 -5 -6z"/>
<path d="M6057 3003 c9 -7 26 -12 37 -12 19 1 19 2 2 6 -15 4 -16 7 -5 14 9 6
3 8 -19 6 -28 -2 -30 -4 -15 -14z"/>
<path d="M6158 3013 c6 -2 18 -2 25 0 6 3 1 5 -13 5 -14 0 -19 -2 -12 -5z"/>
<path d="M6010 2998 c22 -10 23 -12 6 -16 -11 -2 -27 -11 -35 -20 -9 -8 -11
-13 -6 -10 6 2 25 10 42 17 28 11 31 15 19 27 -8 8 -23 14 -33 13 -14 0 -12
-3 7 -11z"/>
<path d="M5656 2977 c3 -10 9 -15 12 -12 3 3 0 11 -7 18 -10 9 -11 8 -5 -6z"/>
<path d="M5770 2980 c-8 -5 -10 -10 -5 -10 6 0 17 5 25 10 8 5 11 10 5 10 -5
0 -17 -5 -25 -10z"/>
<path d="M4807 2923 c3 -7 9 -13 13 -13 4 0 10 6 13 13 3 7 -3 13 -13 13 -10
0 -16 -6 -13 -13z"/>
<path d="M5448 2783 c23 -2 61 -2 85 0 23 2 4 4 -43 4 -47 0 -66 -2 -42 -4z"/>
<path d="M4989 2771 c11 -7 11 -9 0 -14 -8 -4 0 -4 16 -1 24 5 27 3 15 -6 -13
-10 -12 -11 3 -6 10 3 24 6 30 7 7 0 -4 7 -23 14 -40 16 -61 19 -41 6z"/>
<path d="M5378 2773 c7 -3 16 -2 19 1 4 3 -2 6 -13 5 -11 0 -14 -3 -6 -6z"/>
<path d="M5183 2763 c9 -2 23 -2 30 0 6 3 -1 5 -18 5 -16 0 -22 -2 -12 -5z"/>
<path d="M5242 2761 c-11 -7 -11 -9 0 -14 9 -3 15 1 15 9 0 8 -1 14 -1 14 -1
0 -7 -4 -14 -9z"/>
<path d="M6130 2757 c0 -10 8 -17 18 -17 9 0 13 4 7 8 -5 4 -13 11 -17 16 -5
5 -8 2 -8 -7z"/>
<path d="M5278 2753 c7 -3 16 -2 19 1 4 3 -2 6 -13 5 -11 0 -14 -3 -6 -6z"/>
<path d="M5505 2750 c-16 -7 -17 -9 -3 -9 9 -1 20 4 23 9 7 11 7 11 -20 0z"/>
<path d="M5205 2740 c-3 -5 -1 -10 4 -10 6 0 11 5 11 10 0 6 -2 10 -4 10 -3 0
-8 -4 -11 -10z"/>
<path d="M5425 2730 c-13 -6 -15 -9 -5 -9 8 0 22 4 30 9 18 12 2 12 -25 0z"/>
<path d="M5698 2723 c6 -2 18 -2 25 0 6 3 1 5 -13 5 -14 0 -19 -2 -12 -5z"/>
<path d="M6270 2720 c-9 -6 -10 -10 -3 -10 6 0 15 5 18 10 8 12 4 12 -15 0z"/>
<path d="M5340 2684 c-14 -7 -35 -23 -48 -36 l-22 -24 23 -1 c12 0 16 1 9 4
-10 4 -9 9 4 24 9 10 23 19 29 19 7 0 18 7 25 15 14 17 13 17 -20 -1z"/>
<path d="M5326 2643 c-6 -14 -5 -15 5 -6 7 7 10 15 7 18 -3 3 -9 -2 -12 -12z"/>
<path d="M5350 2630 c-8 -5 -10 -10 -5 -10 6 0 17 5 25 10 8 5 11 10 5 10 -5
0 -17 -5 -25 -10z"/>
<path d="M6068 2603 c7 -3 16 -2 19 1 4 3 -2 6 -13 5 -11 0 -14 -3 -6 -6z"/>
<path d="M5222 2570 c-26 -35 -26 -37 -8 -37 8 0 15 3 14 6 -2 18 3 32 10 27
4 -2 8 4 8 15 0 10 -1 19 -1 19 -1 0 -11 -13 -23 -30z"/>
<path d="M6015 2590 c-13 -6 -15 -9 -5 -9 8 0 22 4 30 9 18 12 2 12 -25 0z"/>
<path d="M5688 2553 c7 -3 16 -2 19 1 4 3 -2 6 -13 5 -11 0 -14 -3 -6 -6z"/>
<path d="M6192 2531 c-11 -7 -11 -9 0 -14 9 -3 15 1 15 9 0 8 -1 14 -1 14 -1
0 -7 -4 -14 -9z"/>
<path d="M6235 2521 c-3 -6 5 -15 17 -21 21 -10 22 -10 5 4 -18 14 -18 14 0
19 15 4 16 5 1 6 -9 0 -19 -3 -23 -8z"/>
<path d="M5176 2504 c-4 -9 -4 -19 -1 -22 3 -3 5 1 5 9 0 11 2 11 10 -1 8 -13
10 -13 10 2 0 23 -17 31 -24 12z"/>
<path d="M5145 2419 c-4 -12 -2 -26 5 -33 10 -8 11 -7 8 4 -3 8 -1 23 4 33 5
10 5 17 -1 17 -5 0 -13 -9 -16 -21z"/>
<path d="M5768 2363 c7 -3 16 -2 19 1 4 3 -2 6 -13 5 -11 0 -14 -3 -6 -6z"/>
<path d="M5848 2353 c6 -2 18 -2 25 0 6 3 1 5 -13 5 -14 0 -19 -2 -12 -5z"/>
<path d="M5798 2343 c6 -2 18 -2 25 0 6 3 1 5 -13 5 -14 0 -19 -2 -12 -5z"/>
<path d="M5660 2270 c8 -5 20 -10 25 -10 6 0 3 5 -5 10 -8 5 -19 10 -25 10 -5
0 -3 -5 5 -10z"/>
<path d="M5658 2243 c7 -3 16 -2 19 1 4 3 -2 6 -13 5 -11 0 -14 -3 -6 -6z"/>
<path d="M5698 2233 c6 -2 18 -2 25 0 6 3 1 5 -13 5 -14 0 -19 -2 -12 -5z"/>
<path d="M5220 2161 c0 -6 4 -13 10 -16 6 -3 7 1 4 9 -7 18 -14 21 -14 7z"/>
<path d="M5541 2130 c-9 -5 -5 -9 10 -13 28 -7 31 -6 14 10 -6 6 -18 8 -24 3z"/>
<path d="M5204 2108 c10 -16 19 -28 20 -28 0 0 2 12 2 28 1 15 -1 21 -3 14 -4
-10 -8 -10 -21 0 -12 10 -12 7 2 -14z"/>
<path d="M5615 2120 c11 -5 14 -9 7 -9 -15 -1 -6 -21 9 -21 6 0 7 5 4 10 -3 6
0 10 7 10 9 0 9 3 -2 10 -8 5 -22 9 -30 9 -10 0 -8 -3 5 -9z"/>
<path d="M5440 2102 c0 -6 6 -12 13 -15 6 -2 9 -8 4 -12 -4 -5 -13 -3 -19 3
-15 15 -25 15 -25 0 0 -8 16 -13 43 -14 43 -1 43 2 1 35 -9 8 -17 9 -17 3z"/>
<path d="M5500 2040 c0 -5 5 -10 11 -10 5 0 7 5 4 10 -3 6 -8 10 -11 10 -2 0
-4 -4 -4 -10z"/>
<path d="M5540 2013 c8 -2 22 -7 30 -9 12 -4 12 -6 1 -14 -10 -5 -6 -8 12 -7
l27 2 -23 17 c-12 10 -31 17 -42 17 -14 0 -15 -2 -5 -6z"/>
<path d="M5490 2002 c0 -13 47 -28 57 -18 4 3 -3 6 -13 6 -11 0 -25 5 -32 12
-9 9 -12 9 -12 0z"/>
<path d="M4471 4904 c0 -11 3 -14 6 -6 3 7 2 16 -1 19 -3 4 -6 -2 -5 -13z"/>
<path d="M4380 4744 c0 -8 5 -12 10 -9 6 3 10 10 10 16 0 5 -4 9 -10 9 -5 0
-10 -7 -10 -16z"/>
<path d="M4340 4720 c0 -5 5 -10 11 -10 5 0 7 5 4 10 -3 6 -8 10 -11 10 -2 0
-4 -4 -4 -10z"/>
<path d="M4381 4684 c0 -11 3 -14 6 -6 3 7 2 16 -1 19 -3 4 -6 -2 -5 -13z"/>
<path d="M6098 4733 c6 -2 18 -2 25 0 6 3 1 5 -13 5 -14 0 -19 -2 -12 -5z"/>
<path d="M4095 4500 c-3 -6 1 -7 9 -4 18 7 21 14 7 14 -6 0 -13 -4 -16 -10z"/>
<path d="M6120 4050 c0 -5 5 -10 11 -10 5 0 7 5 4 10 -3 6 -8 10 -11 10 -2 0
-4 -4 -4 -10z"/>
<path d="M3904 3759 c-4 -8 -3 -9 4 -5 7 4 12 2 12 -3 0 -6 5 -11 11 -11 13 0
7 22 -8 27 -6 2 -15 -1 -19 -8z"/>
<path d="M3950 3718 c0 -19 2 -20 10 -8 13 19 13 30 0 30 -5 0 -10 -10 -10
-22z"/>
<path d="M3875 3700 c-3 -5 -1 -10 4 -10 6 0 11 5 11 10 0 6 -2 10 -4 10 -3 0
-8 -4 -11 -10z"/>
<path d="M3950 3650 c-8 -5 -10 -10 -5 -10 6 0 17 5 25 10 8 5 11 10 5 10 -5
0 -17 -5 -25 -10z"/>
<path d="M2660 5090 c0 -14 7 -20 24 -20 15 0 36 -13 55 -35 17 -20 31 -30 31
-24 0 14 -86 99 -100 99 -5 0 -10 -9 -10 -20z"/>
<path d="M2251 5041 c-16 -10 -24 -41 -11 -41 4 0 11 7 14 16 3 8 11 12 17 9
6 -5 3 -12 -10 -22 -12 -8 -25 -12 -30 -9 -5 4 -12 0 -15 -6 -3 -7 -3 -2 0 12
8 33 1 25 -26 -29 -12 -23 -17 -40 -12 -37 6 3 14 -6 20 -21 l9 -28 16 31 c19
37 57 64 91 64 29 0 91 -50 99 -79 4 -17 2 -18 -20 -10 -36 13 -62 3 -56 -21
3 -11 2 -28 -2 -37 -6 -16 -8 -15 -16 5 -5 13 -6 29 -2 34 4 7 1 8 -6 3 -16
-9 -41 -68 -41 -95 0 -11 9 -29 20 -40 l20 -20 -47 -1 c-65 -1 -83 -9 -99 -47
-15 -38 -15 -38 36 -12 22 11 79 30 127 41 95 23 140 44 148 70 8 25 -28 120
-65 175 -22 31 -46 52 -71 62 -22 8 -39 21 -39 29 0 15 -28 17 -49 4z"/>
<path d="M1459 4793 c-13 -16 -12 -17 4 -4 9 7 17 15 17 17 0 8 -8 3 -21 -13z"/>
<path d="M1306 4665 c-9 -26 -7 -32 5 -12 6 10 9 21 6 23 -2 3 -7 -2 -11 -11z"/>
<path d="M2787 4430 c6 -22 11 -24 32 -11 11 7 10 11 -7 20 -28 15 -31 14 -25
-9z"/>
<path d="M2895 4340 c-3 -5 -17 -10 -30 -10 -13 0 -27 -5 -30 -11 -13 -19 3
-21 39 -4 37 18 55 35 37 35 -5 0 -13 -4 -16 -10z"/>
<path d="M2526 4333 c-11 -11 -7 -23 8 -23 7 0 19 -6 25 -14 11 -13 15 -12 32
2 27 23 24 33 -9 30 -15 -1 -32 1 -38 5 -6 3 -14 4 -18 0z"/>
<path d="M2687 4323 c-15 -14 -6 -19 25 -15 28 4 30 6 13 13 -26 10 -30 10
-38 2z"/>
<path d="M2645 4310 c-3 -5 -1 -10 4 -10 6 0 11 5 11 10 0 6 -2 10 -4 10 -3 0
-8 -4 -11 -10z"/>
<path d="M294 4298 c-32 -15 -64 -80 -64 -127 0 -62 32 -141 90 -225 29 -41
58 -80 65 -86 20 -17 168 56 232 114 109 98 124 217 36 269 -39 22 -76 17
-128 -19 -20 -13 -38 -24 -40 -24 -2 0 -13 16 -26 36 -39 64 -109 90 -165 62z"/>
<path d="M2668 4283 c7 -3 16 -2 19 1 4 3 -2 6 -13 5 -11 0 -14 -3 -6 -6z"/>
<path d="M2658 4263 c7 -3 16 -2 19 1 4 3 -2 6 -13 5 -11 0 -14 -3 -6 -6z"/>
<path d="M1532 4071 c-11 -7 -11 -9 1 -14 9 -3 18 1 21 9 6 16 -2 18 -22 5z"/>
<path d="M2310 4051 c0 -5 5 -13 10 -16 6 -3 10 -2 10 4 0 5 -4 13 -10 16 -5
3 -10 2 -10 -4z"/>
<path d="M1526 4035 c4 -9 16 -21 28 -27 19 -10 19 -9 -3 16 -28 30 -33 32
-25 11z"/>
<path d="M1610 4023 c-19 -7 -30 -24 -24 -35 3 -5 13 1 22 12 16 19 21 20 70
8 28 -7 52 -16 52 -19 0 -4 -19 -3 -41 2 -42 10 -79 5 -79 -10 0 -23 138 -38
190 -21 16 6 3 7 -36 3 -34 -3 -69 -1 -79 4 -12 7 10 10 73 9 50 -1 85 2 79 6
-8 5 -7 8 3 8 13 0 13 1 0 10 -20 13 -33 13 -24 -1 4 -7 -1 -7 -16 1 -15 8
-20 8 -16 1 8 -12 -36 -16 -48 -4 -6 7 -94 33 -106 32 -3 0 -12 -3 -20 -6z"/>
<path d="M2196 3946 c3 -9 13 -16 22 -16 8 0 13 1 11 3 -2 1 -12 9 -22 16 -15
12 -17 12 -11 -3z"/>
<path d="M1851 3464 c0 -11 3 -14 6 -6 3 7 2 16 -1 19 -3 4 -6 -2 -5 -13z"/>
<path d="M2567 3375 c12 -16 34 -43 48 -60 20 -22 18 -18 -6 18 -18 26 -40 53
-48 60 -8 7 -5 -1 6 -18z"/>
<path d="M1910 3351 c0 -6 4 -13 10 -16 6 -3 7 1 4 9 -7 18 -14 21 -14 7z"/>
<path d="M1990 3310 c0 -6 7 -13 15 -16 8 -4 15 -11 15 -18 0 -15 38 -38 44
-27 3 5 -8 23 -26 40 -33 32 -48 39 -48 21z"/>
<path d="M2090 3220 c33 -26 50 -26 22 0 -12 11 -27 20 -34 20 -7 0 -2 -9 12
-20z"/>
<path d="M1040 3149 c0 -5 5 -7 10 -4 6 3 10 8 10 11 0 2 -4 4 -10 4 -5 0 -10
-5 -10 -11z"/>
<path d="M2290 3149 c0 -5 5 -7 10 -4 6 3 10 8 10 11 0 2 -4 4 -10 4 -5 0 -10
-5 -10 -11z"/>
<path d="M2319 3131 c8 -5 10 -14 6 -22 -6 -8 -4 -11 7 -7 8 4 21 2 29 -3 10
-6 8 -9 -11 -9 -19 -1 -13 -6 25 -20 83 -33 82 -30 -30 55 -10 8 -24 15 -30
15 -5 0 -4 -4 4 -9z"/>
<path d="M598 2763 c7 -3 16 -2 19 1 4 3 -2 6 -13 5 -11 0 -14 -3 -6 -6z"/>
<path d="M795 2693 c-19 -15 -19 -15 5 -8 23 7 24 7 10 -10 -14 -18 -14 -18
13 -1 25 17 40 35 16 20 -6 -3 -14 -2 -18 4 -4 7 -13 5 -26 -5z"/>
<path d="M890 2670 c0 -5 5 -10 11 -10 5 0 7 5 4 10 -3 6 -8 10 -11 10 -2 0
-4 -4 -4 -10z"/>
<path d="M830 2660 c-9 -6 -10 -10 -3 -10 6 0 15 5 18 10 8 12 4 12 -15 0z"/>
<path d="M926 2613 c-6 -14 -5 -15 5 -6 7 7 10 15 7 18 -3 3 -9 -2 -12 -12z"/>
<path d="M3340 2434 c0 -6 7 -19 16 -30 14 -18 14 -18 3 6 -14 31 -19 36 -19
24z"/>
<path d="M3351 2334 c0 -11 3 -14 6 -6 3 7 2 16 -1 19 -3 4 -6 -2 -5 -13z"/>
<path d="M3382 2320 c0 -14 2 -19 5 -12 2 6 2 18 0 25 -3 6 -5 1 -5 -13z"/>
<path d="M1337 2141 c-4 -17 -3 -21 5 -13 5 5 8 16 6 23 -3 8 -7 3 -11 -10z"/>
<path d="M1060 2071 c0 -6 4 -13 10 -16 6 -3 7 1 4 9 -7 18 -14 21 -14 7z"/>
<path d="M25 2029 c-16 -15 -27 -30 -25 -33 7 -7 62 43 58 53 -2 4 -16 -4 -33
-20z"/>
<path d="M605 2000 c-3 -6 1 -7 9 -4 18 7 21 14 7 14 -6 0 -13 -4 -16 -10z"/>
<path d="M706 1952 c5 -4 18 -18 27 -32 9 -13 17 -20 17 -14 0 16 -30 54 -43
54 -8 0 -9 -3 -1 -8z"/>
<path d="M6490 1917 c-13 -7 -31 -24 -39 -38 -19 -34 0 -86 35 -95 86 -22 153
74 88 125 -31 24 -49 26 -84 8z"/>
<path d="M715 1890 c3 -5 8 -10 11 -10 2 0 4 5 4 10 0 6 -5 10 -11 10 -5 0 -7
-4 -4 -10z"/>
<path d="M670 1809 l-35 -6 35 -3 c33 -2 33 -3 10 -10 -21 -7 -22 -8 -4 -9 11
-1 25 -6 30 -11 7 -7 17 -2 32 15 12 14 18 25 12 25 -5 0 -14 -9 -20 -20 -6
-11 -15 -18 -21 -14 -7 4 -6 10 1 19 15 18 2 22 -40 14z"/>
<path d="M268 1773 c7 -3 16 -2 19 1 4 3 -2 6 -13 5 -11 0 -14 -3 -6 -6z"/>
<path d="M190 1730 c-9 -6 -10 -10 -3 -10 6 0 15 5 18 10 8 12 4 12 -15 0z"/>
</g>
</svg>
